<svg width="9" height="9" viewBox="0 0 9 9" fill="none" xmlns="http://www.w3.org/2000/svg">
<path d="M0.700821 4.04112C0.739988 3.82746 0.912264 3.60901 1.19028 3.42047C1.69088 3.08098 2.26261 3.08238 2.83488 3.06118C3.0248 3.05415 3.53477 3.05183 4.07138 3.05304C4.608 3.05183 5.11797 3.05415 5.30789 3.06118C5.88016 3.08238 6.45189 3.08098 6.95249 3.42047C7.23051 3.60901 7.40278 3.82746 7.44195 4.04112C7.47557 4.2245 7.47039 4.85379 7.4316 5.29788C7.41115 5.53201 7.39033 5.64597 7.35927 5.69386C7.26551 5.83838 6.99488 5.95989 6.59675 6.03622C6.22313 6.10784 6.27869 6.1063 4.07138 6.1063C1.86408 6.1063 1.91964 6.10784 1.54602 6.03622C1.14789 5.95989 0.877259 5.83838 0.783504 5.69386C0.752439 5.64597 0.731623 5.53201 0.711166 5.29788C0.672379 4.85379 0.667196 4.2245 0.700821 4.04112Z" stroke="#141B34" stroke-width="1.01786" stroke-linecap="round" stroke-linejoin="round"/>
<path d="M1.52673 3.05329L1.9723 1.52315C2.01323 1.42136 2.09276 1.33634 2.20486 1.29822C3.30515 0.924031 4.8376 0.924031 5.93789 1.29822C6.04999 1.33634 6.12953 1.42136 6.17045 1.52315L6.61602 3.05329" stroke="#141B34" stroke-width="1.01786" stroke-linecap="round" stroke-linejoin="round"/>
<path opacity="0.4" d="M0.848206 4.07031L1.35713 4.23996" stroke="#141B34" stroke-width="1.01786" stroke-linecap="round" stroke-linejoin="round"/>
<path opacity="0.4" d="M7.29462 4.07031L6.78569 4.23996" stroke="#141B34" stroke-width="1.01786" stroke-linecap="round" stroke-linejoin="round"/>
<path opacity="0.4" d="M2.71423 5.9361L2.79759 5.72773C2.92154 5.41784 2.98352 5.26289 3.11276 5.17539C3.242 5.08789 3.40888 5.08789 3.74264 5.08789H4.40011C4.73387 5.08789 4.90075 5.08789 5.02999 5.17539C5.15923 5.26289 5.22121 5.41784 5.34517 5.72773L5.42852 5.9361" stroke="#141B34" stroke-width="1.01786" stroke-linecap="round" stroke-linejoin="round"/>
<path d="M2.37552 6.29652L2.37552 6.56868C2.37554 6.86533 2.36255 6.92092 2.27299 7.00752C2.24679 7.03285 2.19352 7.06934 2.15465 7.08861C2.08658 7.12231 2.06375 7.1236 1.53615 7.1236C0.9967 7.1236 0.987051 7.12302 0.903925 7.08546C0.857485 7.06448 0.798905 7.02252 0.773741 6.99225C0.684925 6.88537 0.680701 6.85385 0.679871 6.29096L0.680101 5.08789" stroke="#141B34" stroke-width="1.01786" stroke-linecap="round"/>
<path d="M5.7673 6.29652V6.56868C5.76728 6.86533 5.78027 6.92092 5.86983 7.00752C5.89604 7.03285 5.9493 7.06934 5.98817 7.08861C6.05624 7.12231 6.07908 7.1236 6.60667 7.1236C7.14612 7.1236 7.15577 7.12302 7.2389 7.08546C7.28534 7.06448 7.34392 7.02252 7.36908 6.99225C7.4579 6.88537 7.46212 6.85385 7.46295 6.29096L7.46272 5.08789" stroke="#141B34" stroke-width="1.01786" stroke-linecap="round"/>
<path opacity="0.4" d="M6.78571 3.05246L7.29463 2.88281" stroke="#141B34" stroke-width="1.01786" stroke-linecap="round" stroke-linejoin="round"/>
<path opacity="0.4" d="M1.35712 3.05246L0.848188 2.88281" stroke="#141B34" stroke-width="1.01786" stroke-linecap="round" stroke-linejoin="round"/>
</svg>
