<svg width="40" height="40" viewBox="0 0 40 40" fill="none" xmlns="http://www.w3.org/2000/svg">
<path d="M20 0.5C30.7696 0.5 39.5 9.23045 39.5 20C39.5 30.7696 30.7696 39.5 20 39.5C9.23045 39.5 0.5 30.7696 0.5 20C0.5 9.23045 9.23045 0.5 20 0.5Z" fill="#FFCC00"/>
<path d="M20 0.5C30.7696 0.5 39.5 9.23045 39.5 20C39.5 30.7696 30.7696 39.5 20 39.5C9.23045 39.5 0.5 30.7696 0.5 20C0.5 9.23045 9.23045 0.5 20 0.5Z" stroke="#E6E8EB"/>
<g clip-path="url(#clip0_16297_9262)">
<path d="M20.0002 12C10.6115 12 3.00024 15.8056 3.00024 20.5C3.00024 25.1944 10.6115 28.9999 20.0002 28.9999C29.389 28.9999 37.0002 25.1943 37.0002 20.5C37.0002 15.8056 29.389 12 20.0002 12ZM20.0002 27.658C11.3525 27.658 4.34221 24.4533 4.34221 20.5C4.34221 16.5467 11.3526 13.3419 20.0002 13.3419C28.6479 13.3419 35.6583 16.5467 35.6583 20.5C35.6583 24.4533 28.6479 27.658 20.0002 27.658ZM17.8563 19.0088V17.6666H22.6522V19.0088H20.9257V23.3334H19.5832V19.0088H17.8563ZM28.4412 17.6666V23.3334H27.0993L24.6654 19.96V23.3334H23.3234V17.6666H24.6653L27.0992 21.04V17.6666H28.4412ZM11.5193 23.3334V17.6666H12.8613L14.3522 19.96L15.8432 17.6666H17.1846V23.3334H15.8432V20.1281L14.8253 21.6927H13.8791L12.8613 20.1281V23.3334H11.5193Z" fill="#0F1012"/>
</g>
<defs>
<clipPath id="clip0_16297_9262">
<rect width="34" height="17" fill="white" transform="translate(3 12)"/>
</clipPath>
</defs>
</svg>
