<svg width="32" height="32" viewBox="0 0 32 32" fill="none" xmlns="http://www.w3.org/2000/svg">
<rect width="32" height="32" rx="16" fill="#ECF9FF"/>
<path d="M16 26C21.5228 26 26 21.5228 26 16C26 10.4772 21.5228 6 16 6C10.4772 6 6 10.4772 6 16C6 17.3789 6.27907 18.6926 6.78382 19.8877C7.06278 20.5481 7.20226 20.8784 7.21953 21.128C7.2368 21.3776 7.16334 21.6521 7.01642 22.2012L6 26L9.79877 24.9836C10.3479 24.8367 10.6224 24.7632 10.872 24.7805C11.1216 24.7977 11.4519 24.9372 12.1123 25.2162C13.3074 25.7209 14.6211 26 16 26Z" stroke="#0055FF" stroke-width="1.5" stroke-linejoin="round"/>
<path opacity="0.4" d="M12.5882 16.3773L13.4591 15.2956C13.8262 14.8397 14.2799 14.4153 14.3155 13.8083C14.3244 13.6549 14.2166 12.9666 14.0008 11.5899C13.916 11.0488 13.4109 11 12.9733 11C12.4031 11 12.1181 11 11.835 11.1293C11.4771 11.2928 11.1098 11.7523 11.0292 12.1373C10.9654 12.442 11.0128 12.6519 11.1076 13.0717C11.5102 14.8548 12.4548 16.6158 13.9195 18.0805C15.3842 19.5452 17.1452 20.4898 18.9283 20.8924C19.3481 20.9872 19.558 21.0346 19.8627 20.9708C20.2477 20.8902 20.7072 20.5229 20.8707 20.165C21 19.8819 21 19.5969 21 19.0267C21 18.5891 20.9512 18.084 20.4101 17.9992C19.0334 17.7834 18.3451 17.6756 18.1917 17.6845C17.5847 17.7201 17.1603 18.1738 16.7044 18.5409L15.6227 19.4118" stroke="#0055FF" stroke-width="1.5"/>
</svg>
