<svg width="32" height="32" viewBox="0 0 32 32" fill="none" xmlns="http://www.w3.org/2000/svg">
<rect width="32" height="32" rx="16" fill="#ECF9FF"/>
<path d="M9 13C9 9.70017 9 8.05025 10.0251 7.02513C11.0503 6 12.7002 6 16 6C19.2998 6 20.9497 6 21.9749 7.02513C23 8.05025 23 9.70017 23 13V19C23 22.2998 23 23.9497 21.9749 24.9749C20.9497 26 19.2998 26 16 26C12.7002 26 11.0503 26 10.0251 24.9749C9 23.9497 9 22.2998 9 19V13Z" stroke="#0055FF" stroke-width="1.5" stroke-linecap="round"/>
<path d="M15 23H17" stroke="#0055FF" stroke-width="1.5" stroke-linecap="round" stroke-linejoin="round"/>
<path d="M13 6L13.089 6.53402C13.2819 7.69129 13.3783 8.26993 13.7752 8.62204C14.1892 8.98934 14.7761 9 16 9C17.2239 9 17.8108 8.98934 18.2248 8.62204C18.6217 8.26993 18.7181 7.69129 18.911 6.53402L19 6" stroke="#0055FF" stroke-width="1.5" stroke-linejoin="round"/>
</svg>
