<svg width="16" height="16" viewBox="0 0 16 16" fill="none" xmlns="http://www.w3.org/2000/svg">
<path d="M8 14.666C7.45455 14.666 6.93346 14.4459 5.89129 14.0057C3.2971 12.9098 2 12.3619 2 11.4402C2 11.1821 2 6.70903 2 4.66602M8 14.666C8.54546 14.666 9.06654 14.4459 10.1087 14.0057C12.7029 12.9098 14 12.3619 14 11.4402L14 4.66602M8 14.666L8 7.56924" stroke="#6D7075" stroke-width="1.5" stroke-linecap="round" stroke-linejoin="round"/>
<path d="M5.55061 6.46157L3.60314 5.51921C2.53438 5.00205 2 4.74347 2 4.33398C2 3.9245 2.53438 3.66592 3.60314 3.14875L5.55061 2.2064C6.75256 1.62479 7.35353 1.33398 8 1.33398C8.64647 1.33398 9.24744 1.62479 10.4494 2.20639L12.3969 3.14875C13.4656 3.66592 14 3.9245 14 4.33398C14 4.74347 13.4656 5.00205 12.3969 5.51922L10.4494 6.46157C9.24744 7.04318 8.64647 7.33398 8 7.33398C7.35353 7.33398 6.75256 7.04318 5.55061 6.46157Z" stroke="#6D7075" stroke-width="1.5" stroke-linecap="round" stroke-linejoin="round"/>
<path d="M4 8L5.33333 8.66667" stroke="#6D7075" stroke-width="1.5" stroke-linecap="round" stroke-linejoin="round"/>
<path opacity="0.4" d="M11.3333 2.66602L4.66663 5.99935" stroke="#6D7075" stroke-width="1.5" stroke-linecap="round" stroke-linejoin="round"/>
</svg>
